<?xml version="1.0" encoding="utf-8"?>
<!-- Generator: Adobe Illustrator 19.0.0, SVG Export Plug-In . SVG Version: 6.00 Build 0)  -->
<svg version="1.1" id="Layer_1" xmlns="http://www.w3.org/2000/svg" xmlns:xlink="http://www.w3.org/1999/xlink" x="0px" y="0px"
	 viewBox="0 0 500 500" style="enable-background:new 0 0 500 500;" xml:space="preserve">
<style type="text/css">
	.st0{opacity:0.7;fill:#F95632;}
	.st1{opacity:0.9;fill:none;stroke:#444444;stroke-width:3;stroke-linecap:round;stroke-miterlimit:10;}
	.st2{fill:none;stroke:#FFFFFF;stroke-width:3;stroke-miterlimit:10;}
	.st3{fill:none;stroke:#FFFFFF;stroke-width:3;stroke-linecap:round;stroke-miterlimit:10;}
	.st4{opacity:0.87;fill:none;stroke:#FFFFFF;stroke-width:3;stroke-miterlimit:10;}
	.st5{opacity:0.7;fill:#63D1DB;}
	.st6{fill:none;stroke:#444444;stroke-width:3;stroke-linecap:round;stroke-miterlimit:10;}
	.st7{fill:#FFFFFF;}
	.st8{opacity:0.9;fill:none;stroke:#444444;stroke-width:2;stroke-linecap:round;stroke-miterlimit:10;}
	.st9{fill:none;stroke:#FFFFFF;stroke-miterlimit:10;}
	.st10{fill:none;stroke:#FFFFFF;stroke-width:2;stroke-linecap:round;stroke-miterlimit:10;}
	.st11{opacity:0.87;fill:none;stroke:#FFFFFF;stroke-width:2;stroke-miterlimit:10;}
	.st12{fill:none;stroke:#444444;stroke-width:2;stroke-linecap:round;stroke-miterlimit:10;}
	.st13{fill:none;stroke:#000000;stroke-width:4;stroke-miterlimit:10;}
	.st14{fill:#BEBEBE;}
	.st15{fill:none;}
	.st16{fill:none;stroke:#313131;stroke-width:2;stroke-miterlimit:10;}
	.st17{fill:none;stroke:#313131;stroke-width:4;stroke-miterlimit:10;}
	.st18{fill:#444444;}
	.st19{fill:none;stroke:#444444;stroke-width:4;stroke-linecap:round;stroke-miterlimit:10;}
</style>
<path id="XMLID_38_" class="st0" d="M146.6,49.2h58.3c4.2,0,7.5,2.1,7.5,4.8v124.4c0,2.6-3.4,4.8-7.5,4.8h-58.3"/>
<path id="XMLID_37_" class="st1" d="M152.7,55.2H211c4.2,0,7.5,2.1,7.5,4.8v124.4c0,2.6-3.4,4.8-7.5,4.8h-58.3"/>
<path id="XMLID_34_" class="st2" d="M182.8,115.3l-2.9-1.5c0,0-0.2-0.2-0.4-0.4c0.6-0.6,1-1.5,1.1-2.4c0.1-0.1,0.2-0.2,0.3-0.5
	c0,0,0.3-1.2-0.2-1c0.4-1.9,0.1-2.5,0.1-2.5c-0.4-1.2-0.4-1.5-1.7-1.8c-1.3-0.3-2.9,0.2-2.9,0.2c-1.1,0.3-1.5,0.9-1.5,0.9
	c-0.9,1.1-0.5,2.8-0.3,3.2c-0.4-0.1-0.1,1-0.1,1c0.1,0.3,0.2,0.5,0.3,0.5c0.1,0.8,0.6,1.7,1.2,2.4c-0.1,0.1-0.3,0.2-0.4,0.3
	c0,0,0,0.5-1.4,0.9c0,0-2.5,0.8-2.9,1.7c0,0-1.4,3.1-1.1,5.9c0,0,0,0.2,0.5,0.5c0,0,3.2,1.3,7.5,1.2c0,0,4.2-0.2,6.9-1.4
	c0,0,0.4-0.1,0.4-1c0,0-0.1-3.9-1.3-5.6C183.9,116,183.6,115.6,182.8,115.3L182.8,115.3z M182.8,115.3"/>
<line id="XMLID_33_" class="st3" x1="147" y1="107.5" x2="161" y2="107.5"/>
<line id="XMLID_32_" class="st3" x1="147" y1="117.5" x2="161" y2="117.5"/>
<line id="XMLID_31_" class="st3" x1="147" y1="127.5" x2="161" y2="127.5"/>
<path id="XMLID_30_" class="st4" d="M185.7,139.9H128c-2.2,0-4.1-1.8-4.1-4.1V96.6c0-2.2,1.8-4.1,4.1-4.1h57.7
	c2.2,0,4.1,1.8,4.1,4.1v39.3C189.8,138.1,187.9,139.9,185.7,139.9z"/>
<polygon id="XMLID_29_" class="st5" points="143.2,200.3 44.1,185.8 44.1,45.8 143.2,32.5 "/>
<path id="XMLID_26_" class="st6" d="M128.1,42.6L38.5,54.6V191l89.6,13 M96.4,162.3"/>
<g id="XMLID_1_">
	<path id="XMLID_24_" class="st7" d="M67.7,118.3l6.9-17.3h6.6l-10.9,27.2h-5.1L54.2,101h6.6L67.7,118.3z"/>
	<path id="XMLID_22_" class="st7" d="M96.9,122.8c3,0,5.4-1.2,7.3-3.5l3.9,4c-3.1,3.5-6.7,5.2-10.9,5.2c-4.2,0-7.6-1.3-10.3-4
		c-2.7-2.6-4.1-6-4.1-10c0-4,1.4-7.4,4.1-10.1c2.8-2.7,6.1-4,10.1-4c4.5,0,8.2,1.7,11.2,5.1l-3.8,4.3c-1.9-2.4-4.3-3.6-7.2-3.6
		c-2.3,0-4.2,0.7-5.9,2.2c-1.6,1.5-2.4,3.5-2.4,6c0,2.5,0.8,4.6,2.3,6.1C92.9,122,94.8,122.8,96.9,122.8z"/>
	<path id="XMLID_20_" class="st7" d="M131.6,101v5.3H119v5.9h12v5.3h-12v10.7h-6.1V101H131.6z"/>
</g>
<line id="XMLID_18_" class="st3" x1="280" y1="430.5" x2="287" y2="430.5"/>
<line id="XMLID_17_" class="st3" x1="280" y1="435.5" x2="287" y2="435.5"/>
<path id="XMLID_107_" class="st0" d="M451.6,258.6h29.3c2.1,0,3.8,1.1,3.8,2.4v62.5c0,1.3-1.7,2.4-3.8,2.4h-29.3"/>
<path id="XMLID_106_" class="st8" d="M454.7,261.6H484c2.1,0,3.8,1.1,3.8,2.4v62.5c0,1.3-1.7,2.4-3.8,2.4h-29.3"/>
<path id="XMLID_103_" class="st9" d="M469.8,291.8l-1.5-0.8c0,0-0.1-0.1-0.2-0.2c0.3-0.3,0.5-0.8,0.5-1.2c0,0,0.1-0.1,0.1-0.3
	c0,0,0.2-0.6-0.1-0.5c0.2-0.9,0-1.3,0-1.3c-0.2-0.6-0.2-0.8-0.9-0.9c-0.7-0.2-1.5,0.1-1.5,0.1c-0.5,0.2-0.8,0.5-0.8,0.5
	c-0.5,0.5-0.2,1.4-0.2,1.6c-0.2-0.1-0.1,0.5-0.1,0.5c0,0.2,0.1,0.2,0.1,0.3c0.1,0.4,0.3,0.9,0.6,1.2c-0.1,0.1-0.1,0.1-0.2,0.2
	c0,0,0,0.2-0.7,0.5c0,0-1.3,0.4-1.5,0.9c0,0-0.7,1.6-0.5,3c0,0,0,0.1,0.2,0.3c0,0,1.6,0.7,3.8,0.6c0,0,2.1-0.1,3.5-0.7
	c0,0,0.2,0,0.2-0.5c0,0-0.1-1.9-0.7-2.8C470.4,292.2,470.2,291.9,469.8,291.8L469.8,291.8z M469.8,291.8"/>
<line id="XMLID_102_" class="st10" x1="452" y1="288" x2="459" y2="288"/>
<line id="XMLID_101_" class="st10" x1="452" y1="293" x2="459" y2="293"/>
<line id="XMLID_100_" class="st10" x1="452" y1="298" x2="459" y2="298"/>
<path id="XMLID_99_" class="st11" d="M471.3,304.2h-29c-1.1,0-2-0.9-2-2v-19.8c0-1.1,0.9-2,2-2h29c1.1,0,2,0.9,2,2v19.8
	C473.3,303.3,472.4,304.2,471.3,304.2z"/>
<polygon id="XMLID_98_" class="st5" points="449.9,334.5 400.1,327.2 400.1,256.9 449.9,250.2 "/>
<path id="XMLID_95_" class="st12" d="M442.3,255.3l-45,6v68.6l45,6.5 M426.4,315.4"/>
<g id="XMLID_88_">
	<path id="XMLID_93_" class="st7" d="M412,293.3l3.5-8.7h3.3l-5.5,13.7h-2.6l-5.5-13.7h3.3L412,293.3z"/>
	<path id="XMLID_91_" class="st7" d="M426.7,295.6c1.5,0,2.7-0.6,3.7-1.8l2,2c-1.6,1.7-3.4,2.6-5.5,2.6c-2.1,0-3.8-0.7-5.2-2
		c-1.4-1.3-2-3-2-5c0-2,0.7-3.7,2.1-5.1c1.4-1.4,3.1-2,5.1-2c2.2,0,4.1,0.9,5.6,2.6l-1.9,2.2c-1-1.2-2.2-1.8-3.6-1.8
		c-1.1,0-2.1,0.4-2.9,1.1c-0.8,0.7-1.2,1.8-1.2,3c0,1.3,0.4,2.3,1.2,3.1C424.6,295.2,425.6,295.6,426.7,295.6z"/>
	<path id="XMLID_89_" class="st7" d="M444.1,284.6v2.7h-6.3v3h6v2.7h-6v5.4h-3v-13.7H444.1z"/>
</g>
<path id="XMLID_68_" class="st0" d="M402.6,370.6h29.3c2.1,0,3.8,1.1,3.8,2.4v62.5c0,1.3-1.7,2.4-3.8,2.4h-29.3"/>
<path id="XMLID_67_" class="st8" d="M405.7,373.6H435c2.1,0,3.8,1.1,3.8,2.4v62.5c0,1.3-1.7,2.4-3.8,2.4h-29.3"/>
<path id="XMLID_64_" class="st9" d="M420.8,403.8l-1.5-0.8c0,0-0.1-0.1-0.2-0.2c0.3-0.3,0.5-0.8,0.5-1.2c0,0,0.1-0.1,0.1-0.3
	c0,0,0.2-0.6-0.1-0.5c0.2-0.9,0-1.3,0-1.3c-0.2-0.6-0.2-0.8-0.9-0.9c-0.7-0.2-1.5,0.1-1.5,0.1c-0.5,0.2-0.8,0.5-0.8,0.5
	c-0.5,0.5-0.2,1.4-0.2,1.6c-0.2-0.1-0.1,0.5-0.1,0.5c0,0.2,0.1,0.2,0.1,0.3c0.1,0.4,0.3,0.9,0.6,1.2c-0.1,0.1-0.1,0.1-0.2,0.2
	c0,0,0,0.2-0.7,0.5c0,0-1.3,0.4-1.5,0.9c0,0-0.7,1.6-0.5,3c0,0,0,0.1,0.2,0.3c0,0,1.6,0.7,3.8,0.6c0,0,2.1-0.1,3.5-0.7
	c0,0,0.2,0,0.2-0.5c0,0-0.1-1.9-0.7-2.8C421.4,404.2,421.2,403.9,420.8,403.8L420.8,403.8z M420.8,403.8"/>
<line id="XMLID_47_" class="st10" x1="403" y1="400" x2="410" y2="400"/>
<line id="XMLID_39_" class="st10" x1="403" y1="405" x2="410" y2="405"/>
<line id="XMLID_19_" class="st10" x1="403" y1="410" x2="410" y2="410"/>
<path id="XMLID_16_" class="st11" d="M422.3,416.2h-29c-1.1,0-2-0.9-2-2v-19.8c0-1.1,0.9-2,2-2h29c1.1,0,2,0.9,2,2v19.8
	C424.3,415.3,423.4,416.2,422.3,416.2z"/>
<polygon id="XMLID_15_" class="st5" points="400.9,446.5 351.1,439.2 351.1,368.9 400.9,362.2 "/>
<path id="XMLID_12_" class="st12" d="M393.3,367.3l-45,6v68.6l45,6.5 M377.4,427.4"/>
<g id="XMLID_5_">
	<path id="XMLID_10_" class="st7" d="M363,405.3l3.5-8.7h3.3l-5.5,13.7h-2.6l-5.5-13.7h3.3L363,405.3z"/>
	<path id="XMLID_8_" class="st7" d="M377.7,407.6c1.5,0,2.7-0.6,3.7-1.8l2,2c-1.6,1.7-3.4,2.6-5.5,2.6c-2.1,0-3.8-0.7-5.2-2
		c-1.4-1.3-2-3-2-5c0-2,0.7-3.7,2.1-5.1c1.4-1.4,3.1-2,5.1-2c2.2,0,4.1,0.9,5.6,2.6l-1.9,2.2c-1-1.2-2.2-1.8-3.6-1.8
		c-1.1,0-2.1,0.4-2.9,1.1c-0.8,0.7-1.2,1.8-1.2,3c0,1.3,0.4,2.3,1.2,3.1C375.6,407.2,376.6,407.6,377.7,407.6z"/>
	<path id="XMLID_6_" class="st7" d="M395.1,396.6v2.7h-6.3v3h6v2.7h-6v5.4h-3v-13.7H395.1z"/>
</g>
<path id="XMLID_109_" class="st0" d="M275.6,408.6h29.3c2.1,0,3.8,1.1,3.8,2.4v62.5c0,1.3-1.7,2.4-3.8,2.4h-29.3"/>
<path id="XMLID_108_" class="st8" d="M278.7,411.6H308c2.1,0,3.8,1.1,3.8,2.4v62.5c0,1.3-1.7,2.4-3.8,2.4h-29.3"/>
<path id="XMLID_85_" class="st9" d="M293.8,441.8l-1.5-0.8c0,0-0.1-0.1-0.2-0.2c0.3-0.3,0.5-0.8,0.5-1.2c0,0,0.1-0.1,0.1-0.3
	c0,0,0.2-0.6-0.1-0.5c0.2-0.9,0-1.3,0-1.3c-0.2-0.6-0.2-0.8-0.9-0.9c-0.7-0.2-1.5,0.1-1.5,0.1c-0.5,0.2-0.8,0.5-0.8,0.5
	c-0.5,0.5-0.2,1.4-0.2,1.6c-0.2-0.1-0.1,0.5-0.1,0.5c0,0.2,0.1,0.2,0.1,0.3c0.1,0.4,0.3,0.9,0.6,1.2c-0.1,0.1-0.1,0.1-0.2,0.2
	c0,0,0,0.2-0.7,0.5c0,0-1.3,0.4-1.5,0.9c0,0-0.7,1.6-0.5,3c0,0,0,0.1,0.2,0.3c0,0,1.6,0.7,3.8,0.6c0,0,2.1-0.1,3.5-0.7
	c0,0,0.2,0,0.2-0.5c0,0-0.1-1.9-0.7-2.8C294.4,442.2,294.2,441.9,293.8,441.8L293.8,441.8z M293.8,441.8"/>
<line id="XMLID_84_" class="st10" x1="276" y1="438" x2="283" y2="438"/>
<line id="XMLID_83_" class="st10" x1="276" y1="443" x2="283" y2="443"/>
<line id="XMLID_82_" class="st10" x1="276" y1="448" x2="283" y2="448"/>
<path id="XMLID_81_" class="st11" d="M295.3,454.2h-29c-1.1,0-2-0.9-2-2v-19.8c0-1.1,0.9-2,2-2h29c1.1,0,2,0.9,2,2v19.8
	C297.3,453.3,296.4,454.2,295.3,454.2z"/>
<polygon id="XMLID_80_" class="st5" points="273.9,484.5 224.1,477.2 224.1,406.9 273.9,400.2 "/>
<path id="XMLID_77_" class="st12" d="M266.3,405.3l-45,6v68.6l45,6.5 M250.4,465.4"/>
<g id="XMLID_69_">
	<path id="XMLID_75_" class="st7" d="M236,443.3l3.5-8.7h3.3l-5.5,13.7h-2.6l-5.5-13.7h3.3L236,443.3z"/>
	<path id="XMLID_73_" class="st7" d="M250.7,445.6c1.5,0,2.7-0.6,3.7-1.8l2,2c-1.6,1.7-3.4,2.6-5.5,2.6c-2.1,0-3.8-0.7-5.2-2
		c-1.4-1.3-2-3-2-5c0-2,0.7-3.7,2.1-5.1c1.4-1.4,3.1-2,5.1-2c2.2,0,4.1,0.9,5.6,2.6l-1.9,2.2c-1-1.2-2.2-1.8-3.6-1.8
		c-1.1,0-2.1,0.4-2.9,1.1c-0.8,0.7-1.2,1.8-1.2,3c0,1.3,0.4,2.3,1.2,3.1C248.6,445.2,249.6,445.6,250.7,445.6z"/>
	<path id="XMLID_70_" class="st7" d="M268.1,434.6v2.7h-6.3v3h6v2.7h-6v5.4h-3v-13.7H268.1z"/>
</g>
<path id="XMLID_46_" class="st13" d="M248.6,243.6"/>
<path id="XMLID_63_" class="st14" d="M261.2,239.2c-0.6-0.6-1.4-0.6-2.1-0.1l-1.6,1.3c-1.1-0.6-2.2-1.1-3.4-1.4l-0.2-2.1
	c-0.1-0.8-0.8-1.4-1.5-1.4h-3.6c-0.8,0-1.4,0.6-1.5,1.4L247,239c-1.2,0.3-2.4,0.8-3.4,1.5l-1.7-1.3c-0.6-0.5-1.5-0.4-2.1,0.1
	l-2.6,2.6c-0.6,0.6-0.6,1.4-0.1,2.1l1.4,1.8c-0.6,1-1,2.1-1.3,3.2l-2.2,0.3c-0.8,0.1-1.4,0.8-1.4,1.5v3.6c0,0.8,0.6,1.4,1.4,1.5
	l2.4,0.3c0.3,1,0.7,2,1.2,2.9l-1.5,1.9c-0.5,0.6-0.4,1.5,0.1,2.1l2.6,2.6c0.6,0.6,1.4,0.6,2.1,0.1l1.9-1.5c1,0.6,2,1,3.1,1.3
	l0.3,2.4c0.1,0.8,0.8,1.4,1.5,1.4h3.6c0.8,0,1.4-0.6,1.5-1.4l0.3-2.3c1.1-0.3,2.2-0.7,3.3-1.3l1.8,1.4c0.6,0.5,1.5,0.4,2.1-0.1
	l2.6-2.6c0.6-0.6,0.6-1.4,0.1-2.1l-1.4-1.8c0.6-1,1-2.1,1.4-3.2l2.2-0.3c0.8-0.1,1.4-0.8,1.4-1.5v-3.6c0-0.8-0.6-1.4-1.4-1.5
	l-2.1-0.3c-0.3-1.1-0.7-2.2-1.3-3.2l1.3-1.7c0.5-0.6,0.4-1.5-0.1-2.1L261.2,239.2"/>
<path id="XMLID_62_" class="st7" d="M252.4,246.2c3.3,0,6,2.7,6,6c0,3.3-2.7,6-6,6s-6-2.7-6-6C246.4,248.9,249.1,246.2,252.4,246.2
	L252.4,246.2z"/>
<path id="XMLID_61_" class="st13" d="M250.6,246.2"/>
<path id="XMLID_57_" class="st14" d="M292.1,269.5l-1.9-1.6c-0.6-0.5-1.5-0.5-2,0.1l-1.1,1c-0.9-0.4-1.9-0.7-2.8-0.9l-0.3-1.5
	c-0.2-0.8-0.9-1.3-1.6-1.2l-2.5,0.2c-0.8,0.1-1.4,0.7-1.4,1.5l0,1.5c-1,0.3-1.9,0.8-2.7,1.4l-1.3-0.8c-0.6-0.4-1.5-0.3-2,0.3
	l-1.6,1.9c-0.5,0.6-0.5,1.5,0.1,2l1.1,1.2c-0.4,0.9-0.7,1.8-0.8,2.7l-1.6,0.3c-0.8,0.2-1.3,0.9-1.2,1.6l0.2,2.5
	c0.1,0.8,0.7,1.4,1.5,1.4l1.7,0.1c0.3,0.8,0.7,1.6,1.2,2.3l-1,1.4c-0.4,0.6-0.3,1.5,0.3,2l1.9,1.6c0.6,0.5,1.5,0.5,2-0.1l1.3-1.2
	c0.8,0.4,1.7,0.7,2.6,0.8l0.3,1.7c0.2,0.8,0.9,1.3,1.6,1.2l2.5-0.2c0.8-0.1,1.4-0.7,1.4-1.5l0.1-1.7c0.9-0.3,1.8-0.8,2.6-1.3
	l1.4,0.9c0.6,0.4,1.5,0.3,2-0.3l1.6-1.9c0.5-0.6,0.5-1.5-0.1-2l-1.1-1.2c0.4-0.9,0.7-1.8,0.9-2.7l1.5-0.3c0.8-0.2,1.3-0.9,1.2-1.6
	l-0.2-2.5c-0.1-0.8-0.7-1.4-1.5-1.4l-1.5,0c-0.3-0.9-0.7-1.7-1.3-2.5l0.8-1.3C292.8,270.8,292.7,270,292.1,269.5L292.1,269.5z
	 M282.6,284c-2.7,0.2-5.1-1.8-5.3-4.5c-0.2-2.7,1.8-5.1,4.5-5.3c2.7-0.2,5.1,1.8,5.3,4.5C287.3,281.4,285.3,283.8,282.6,284
	L282.6,284z M282.6,284"/>
<rect id="XMLID_56_" x="233.6" y="235.5" class="st15" width="57" height="56.4"/>
<path id="XMLID_52_" class="st14" d="M240.6,286.8c-0.8,0.1-1.4,0.7-1.4,1.5l0,1.5c0,0.8,0.6,1.4,1.3,1.5l1.1,0.1
	c0.2,0.7,0.5,1.4,0.8,2l-0.7,0.9c-0.5,0.6-0.5,1.5,0.1,2l1.1,1.1c0.5,0.6,1.4,0.6,2,0.1l0.9-0.7c0.6,0.4,1.3,0.7,2,0.9l0.1,1.2
	c0.1,0.8,0.7,1.4,1.5,1.4l1.5,0c0.8,0,1.4-0.6,1.5-1.3l0.1-1.1c0.8-0.2,1.5-0.5,2.2-0.9l0.9,0.7c0.6,0.5,1.5,0.5,2-0.1l1.1-1.1
	c0.6-0.5,0.6-1.4,0.1-2l-0.7-0.8c0.4-0.7,0.7-1.4,0.9-2.1l1-0.1c0.8-0.1,1.4-0.7,1.4-1.5l0-1.5c0-0.8-0.6-1.4-1.3-1.5l-1-0.1
	c-0.2-0.7-0.5-1.5-0.8-2.1l0.6-0.8c0.5-0.6,0.5-1.5-0.1-2l-1.1-1.1c-0.5-0.6-1.4-0.6-2-0.1l-0.7,0.6c-0.7-0.4-1.4-0.7-2.2-1l-0.1-1
	c-0.1-0.8-0.7-1.4-1.5-1.4l-1.5,0c-0.8,0-1.4,0.6-1.5,1.3l-0.1,1c-0.8,0.2-1.6,0.5-2.3,0.9l-0.8-0.6c-0.6-0.5-1.5-0.5-2,0.1
	l-1.1,1.1c-0.6,0.5-0.6,1.4-0.1,2l0.7,0.8c-0.4,0.7-0.7,1.4-0.9,2.1L240.6,286.8z M250.6,285c2.2,0,4,1.9,4,4.1c0,2.2-1.9,4-4.1,4
	c-2.2,0-4-1.9-4-4.1C246.5,286.8,248.4,285,250.6,285L250.6,285z M250.6,285"/>
<path id="XMLID_48_" class="st16" d="M263.1,240.5c-0.6-0.6-1.4-0.6-2.1-0.1l-1.6,1.3c-1.1-0.6-2.2-1.1-3.4-1.4l-0.2-2.1
	c-0.1-0.8-0.8-1.4-1.5-1.4h-3.6c-0.8,0-1.4,0.6-1.5,1.4l-0.2,2.1c-1.2,0.3-2.4,0.8-3.4,1.5l-1.7-1.3c-0.6-0.5-1.5-0.4-2.1,0.1
	l-2.6,2.6c-0.6,0.6-0.6,1.4-0.1,2.1l1.4,1.8c-0.6,1-1,2.1-1.3,3.2l-2.2,0.3c-0.8,0.1-1.4,0.8-1.4,1.5v3.6c0,0.8,0.6,1.4,1.4,1.5
	l2.4,0.3c0.3,1,0.7,2,1.2,2.9l-1.5,1.9c-0.5,0.6-0.4,1.5,0.1,2.1l2.6,2.6c0.6,0.6,1.4,0.6,2.1,0.1l1.9-1.5c1,0.6,2,1,3.1,1.3
	l0.3,2.4c0.1,0.8,0.8,1.4,1.5,1.4h3.6c0.8,0,1.4-0.6,1.5-1.4l0.3-2.3c1.1-0.3,2.2-0.7,3.3-1.3l1.8,1.4c0.6,0.5,1.5,0.4,2.1-0.1
	l2.6-2.6c0.6-0.6,0.6-1.4,0.1-2.1l-1.4-1.8c0.6-1,1-2.1,1.4-3.2l2.2-0.3c0.8-0.1,1.4-0.8,1.4-1.5v-3.6c0-0.8-0.6-1.4-1.4-1.5
	l-2.1-0.3c-0.3-1.1-0.7-2.2-1.3-3.2l1.3-1.7c0.5-0.6,0.4-1.5-0.1-2.1L263.1,240.5"/>
<path id="XMLID_50_" class="st16" d="M292,271.5l-1.9-1.6c-0.6-0.5-1.5-0.5-2,0.1l-1.1,1c-0.9-0.4-1.9-0.7-2.8-0.9l-0.3-1.5
	c-0.2-0.8-0.9-1.3-1.6-1.2l-2.5,0.2c-0.8,0.1-1.4,0.7-1.4,1.5l0,1.5c-1,0.3-1.9,0.8-2.7,1.4l-1.3-0.8c-0.6-0.4-1.5-0.3-2,0.3
	l-1.6,1.9c-0.5,0.6-0.5,1.5,0.1,2l1.1,1.2c-0.4,0.9-0.7,1.8-0.8,2.7l-1.6,0.3c-0.8,0.2-1.3,0.9-1.2,1.6l0.2,2.5
	c0.1,0.8,0.7,1.4,1.5,1.4l1.7,0.1c0.3,0.8,0.7,1.6,1.2,2.3l-1,1.4c-0.4,0.6-0.3,1.5,0.3,2l1.9,1.6c0.6,0.5,1.5,0.5,2-0.1l1.3-1.2
	c0.8,0.4,1.7,0.7,2.6,0.8l0.3,1.7c0.2,0.8,0.9,1.3,1.6,1.2l2.5-0.2c0.8-0.1,1.4-0.7,1.4-1.5l0.1-1.7c0.9-0.3,1.8-0.8,2.6-1.3
	l1.4,0.9c0.6,0.4,1.5,0.3,2-0.3l1.6-1.9c0.5-0.6,0.5-1.5-0.1-2l-1.1-1.2c0.4-0.9,0.7-1.8,0.9-2.7l1.5-0.3c0.8-0.2,1.3-0.9,1.2-1.6
	l-0.2-2.5c-0.1-0.8-0.7-1.4-1.5-1.4l-1.5,0c-0.3-0.9-0.7-1.7-1.3-2.5l0.8-1.3C292.7,272.8,292.6,272,292,271.5L292,271.5z
	 M282.6,286"/>
<rect id="XMLID_42_" x="231.6" y="232.9" class="st15" width="57" height="56.4"/>
<path id="XMLID_51_" class="st16" d="M242.6,288.1c-0.8,0.1-1.4,0.7-1.4,1.5l0,1.5c0,0.8,0.6,1.4,1.3,1.5l1.1,0.1
	c0.2,0.7,0.5,1.4,0.8,2l-0.7,0.9c-0.5,0.6-0.5,1.5,0.1,2l1.1,1.1c0.5,0.6,1.4,0.6,2,0.1l0.9-0.7c0.6,0.4,1.3,0.7,2,0.9l0.1,1.2
	c0.1,0.8,0.7,1.4,1.5,1.4l1.5,0c0.8,0,1.4-0.6,1.5-1.3l0.1-1.1c0.8-0.2,1.5-0.5,2.2-0.9l0.9,0.7c0.6,0.5,1.5,0.5,2-0.1l1.1-1.1
	c0.6-0.5,0.6-1.4,0.1-2l-0.7-0.8c0.4-0.7,0.7-1.4,0.9-2.1l1-0.1c0.8-0.1,1.4-0.7,1.4-1.5l0-1.5c0-0.8-0.6-1.4-1.3-1.5l-1-0.1
	c-0.2-0.7-0.5-1.5-0.8-2.1l0.6-0.8c0.5-0.6,0.5-1.5-0.1-2l-1.1-1.1c-0.5-0.6-1.4-0.6-2-0.1l-0.7,0.6c-0.7-0.4-1.4-0.7-2.2-1l-0.1-1
	c-0.1-0.8-0.7-1.4-1.5-1.4l-1.5,0c-0.8,0-1.4,0.6-1.5,1.3l-0.1,1c-0.8,0.2-1.6,0.5-2.3,0.9l-0.8-0.6c-0.6-0.5-1.5-0.5-2,0.1L244,283
	c-0.6,0.5-0.6,1.4-0.1,2l0.7,0.8c-0.4,0.7-0.7,1.4-0.9,2.1L242.6,288.1z M252.5,286.3"/>
<path id="XMLID_49_" class="st17" d="M442.7,381"/>
<g id="XMLID_44_">
	<path id="XMLID_72_" class="st18" d="M213.3,281.1l-2.2-2.8l6.3-5.1l-6-5.6l2.4-2.6l7.5,7c0.4,0.4,0.6,0.8,0.6,1.4
		c0,0.5-0.3,1-0.7,1.3L213.3,281.1z"/>
</g>
<polyline id="XMLID_2_" class="st19" points="107,225 107,273 143,273 "/>
<line id="XMLID_4_" class="st19" x1="151" y1="273" x2="217" y2="273"/>
<g id="XMLID_111_">
	<path id="XMLID_112_" class="st18" d="M369.3,296.1l-2.2-2.8l6.3-5.1l-6-5.6l2.4-2.6l7.5,7c0.4,0.4,0.6,0.8,0.6,1.4
		c0,0.5-0.3,1-0.7,1.3L369.3,296.1z"/>
</g>
<line id="XMLID_110_" class="st19" x1="307" y1="288" x2="373" y2="288"/>
<g id="XMLID_114_">
	<path id="XMLID_115_" class="st18" d="M331.6,359.4l0.6-3.5l8,1.3l0.2-8.2l3.6,0.1l-0.2,10.3c0,0.5-0.2,1-0.6,1.3
		c-0.4,0.3-0.9,0.5-1.4,0.4L331.6,359.4z"/>
</g>
<line id="XMLID_113_" class="st19" x1="296.1" y1="307.6" x2="340" y2="356.8"/>
<g id="XMLID_117_">
	<path id="XMLID_118_" class="st18" d="M267,376.8l2.7-2.3l5.2,6.3l5.6-6l2.6,2.4l-7,7.5c-0.3,0.4-0.8,0.6-1.4,0.6
		c-0.5,0-1-0.3-1.3-0.6L267,376.8z"/>
</g>
<line id="XMLID_116_" class="st19" x1="274.8" y1="314.4" x2="275" y2="380.4"/>
</svg>
