<?xml version="1.0" encoding="utf-8"?>
<!-- Generator: Adobe Illustrator 19.0.0, SVG Export Plug-In . SVG Version: 6.00 Build 0)  -->
<svg version="1.1" id="Layer_1" xmlns="http://www.w3.org/2000/svg" xmlns:xlink="http://www.w3.org/1999/xlink" x="0px" y="0px"
	 viewBox="0 0 500 500" style="enable-background:new 0 0 500 500;" xml:space="preserve">
<style type="text/css">
	.st0{opacity:0.7;fill:#F95632;}
	.st1{opacity:0.9;fill:none;stroke:#444444;stroke-width:3;stroke-linecap:round;stroke-miterlimit:10;}
	.st2{fill:none;stroke:#FFFFFF;stroke-width:3;stroke-miterlimit:10;}
	.st3{fill:none;stroke:#FFFFFF;stroke-width:3;stroke-linecap:round;stroke-miterlimit:10;}
	.st4{opacity:0.87;fill:none;stroke:#FFFFFF;stroke-width:3;stroke-miterlimit:10;}
	.st5{opacity:0.7;fill:#63D1DB;}
	.st6{fill:none;stroke:#444444;stroke-width:3;stroke-linecap:round;stroke-miterlimit:10;}
	.st7{fill:#FFFFFF;}
	.st8{fill:none;stroke:#000000;stroke-width:4;stroke-miterlimit:10;}
	.st9{fill:#BEBEBE;}
	.st10{fill:none;}
	.st11{fill:none;stroke:#313131;stroke-width:2;stroke-miterlimit:10;}
	.st12{fill:none;stroke:#313131;stroke-width:4;stroke-linecap:round;stroke-miterlimit:10;}
	.st13{fill:none;stroke:#313131;stroke-width:4;stroke-miterlimit:10;}
	.st14{fill:#444444;}
	.st15{fill:none;stroke:#444444;stroke-width:4;stroke-linecap:round;stroke-miterlimit:10;}
	.st16{opacity:0.9;fill:none;stroke:#444444;stroke-width:5;stroke-linecap:round;stroke-miterlimit:10;}
	.st17{fill:none;stroke:#444444;stroke-width:5;stroke-linecap:round;stroke-miterlimit:10;}
	.st18{fill:none;stroke:#FFFFFF;stroke-width:5;stroke-linecap:round;stroke-miterlimit:10;}
</style>
<g id="XMLID_77_">
	<path id="XMLID_38_" class="st0" d="M129.6,32.2h58.3c4.2,0,7.5,2.1,7.5,4.8v124.4c0,2.6-3.4,4.8-7.5,4.8h-58.3"/>
	<path id="XMLID_37_" class="st1" d="M135.7,38.2H194c4.2,0,7.5,2.1,7.5,4.8v124.4c0,2.6-3.4,4.8-7.5,4.8h-58.3"/>
	<path id="XMLID_34_" class="st2" d="M165.8,98.3l-2.9-1.5c0,0-0.2-0.2-0.4-0.4c0.6-0.6,1-1.5,1.1-2.4c0.1-0.1,0.2-0.2,0.3-0.5
		c0,0,0.3-1.2-0.2-1c0.4-1.9,0.1-2.5,0.1-2.5c-0.4-1.2-0.4-1.5-1.7-1.8c-1.3-0.3-2.9,0.2-2.9,0.2c-1.1,0.3-1.5,0.9-1.5,0.9
		c-0.9,1.1-0.5,2.8-0.3,3.2c-0.4-0.1-0.1,1-0.1,1c0.1,0.3,0.2,0.5,0.3,0.5c0.1,0.8,0.6,1.7,1.2,2.4c-0.1,0.1-0.3,0.2-0.4,0.3
		c0,0,0,0.5-1.4,0.9c0,0-2.5,0.8-2.9,1.7c0,0-1.4,3.1-1.1,5.9c0,0,0,0.2,0.5,0.5c0,0,3.2,1.3,7.5,1.2c0,0,4.2-0.2,6.9-1.4
		c0,0,0.4-0.1,0.4-1c0,0-0.1-3.9-1.3-5.6C166.9,99,166.6,98.6,165.8,98.3L165.8,98.3z M165.8,98.3"/>
	<line id="XMLID_33_" class="st3" x1="130" y1="90.5" x2="144" y2="90.5"/>
	<line id="XMLID_32_" class="st3" x1="130" y1="100.5" x2="144" y2="100.5"/>
	<line id="XMLID_31_" class="st3" x1="130" y1="110.5" x2="144" y2="110.5"/>
	<path id="XMLID_30_" class="st4" d="M168.7,122.9H111c-2.2,0-4.1-1.8-4.1-4.1V79.6c0-2.2,1.8-4.1,4.1-4.1h57.7
		c2.2,0,4.1,1.8,4.1,4.1v39.3C172.8,121.1,170.9,122.9,168.7,122.9z"/>
	<polygon id="XMLID_29_" class="st5" points="126.2,183.3 27.1,168.8 27.1,28.8 126.2,15.5 	"/>
	<path id="XMLID_26_" class="st6" d="M111.1,25.6L21.5,37.6V174l89.6,13 M79.4,145.3"/>
	<g id="XMLID_1_">
		<path id="XMLID_24_" class="st7" d="M50.7,101.3L57.7,84h6.6l-10.9,27.2h-5.1L37.2,84h6.6L50.7,101.3z"/>
		<path id="XMLID_22_" class="st7" d="M79.9,105.8c3,0,5.4-1.2,7.3-3.5l3.9,4c-3.1,3.5-6.7,5.2-10.9,5.2c-4.2,0-7.6-1.3-10.3-4
			c-2.7-2.6-4.1-6-4.1-10c0-4,1.4-7.4,4.1-10.1c2.8-2.7,6.1-4,10.1-4c4.5,0,8.2,1.7,11.2,5.1l-3.8,4.3c-1.9-2.4-4.3-3.6-7.2-3.6
			c-2.3,0-4.2,0.7-5.9,2.2c-1.6,1.5-2.4,3.5-2.4,6c0,2.5,0.8,4.6,2.3,6.1C75.9,105,77.8,105.8,79.9,105.8z"/>
		<path id="XMLID_20_" class="st7" d="M114.6,84v5.3H102v5.9h12v5.3h-12v10.7h-6.1V84H114.6z"/>
	</g>
	<path id="XMLID_46_" class="st8" d="M234.1,239.5"/>
	<path id="XMLID_63_" class="st9" d="M246.6,235.1c-0.6-0.6-1.4-0.6-2.1-0.1l-1.6,1.3c-1.1-0.6-2.2-1.1-3.4-1.4l-0.2-2.1
		c-0.1-0.8-0.8-1.4-1.5-1.4h-3.6c-0.8,0-1.4,0.6-1.5,1.4l-0.2,2.1c-1.2,0.3-2.4,0.8-3.4,1.5l-1.7-1.3c-0.6-0.5-1.5-0.4-2.1,0.1
		l-2.6,2.6c-0.6,0.6-0.6,1.4-0.1,2.1l1.4,1.8c-0.6,1-1,2.1-1.3,3.2l-2.2,0.3c-0.8,0.1-1.4,0.8-1.4,1.5v3.6c0,0.8,0.6,1.4,1.4,1.5
		l2.4,0.3c0.3,1,0.7,2,1.2,2.9l-1.5,1.9c-0.5,0.6-0.4,1.5,0.1,2.1l2.6,2.6c0.6,0.6,1.4,0.6,2.1,0.1l1.9-1.5c1,0.6,2,1,3.1,1.3
		l0.3,2.4c0.1,0.8,0.8,1.4,1.5,1.4h3.6c0.8,0,1.4-0.6,1.5-1.4l0.3-2.3c1.1-0.3,2.2-0.7,3.3-1.3l1.8,1.4c0.6,0.5,1.5,0.4,2.1-0.1
		l2.6-2.6c0.6-0.6,0.6-1.4,0.1-2.1l-1.4-1.8c0.6-1,1-2.1,1.4-3.2l2.2-0.3c0.8-0.1,1.4-0.8,1.4-1.5v-3.6c0-0.8-0.6-1.4-1.4-1.5
		l-2.1-0.3c-0.3-1.1-0.7-2.2-1.3-3.2l1.3-1.7c0.5-0.6,0.4-1.5-0.1-2.1L246.6,235.1"/>
	<path id="XMLID_62_" class="st7" d="M237.9,242.1c3.3,0,6,2.7,6,6c0,3.3-2.7,6-6,6c-3.3,0-6-2.7-6-6
		C231.9,244.8,234.6,242.1,237.9,242.1L237.9,242.1z"/>
	<path id="XMLID_61_" class="st8" d="M236,242.1"/>
	<path id="XMLID_57_" class="st9" d="M277.5,265.3l-1.9-1.6c-0.6-0.5-1.5-0.5-2,0.1l-1.1,1c-0.9-0.4-1.9-0.7-2.8-0.9l-0.3-1.5
		c-0.2-0.8-0.9-1.3-1.6-1.2l-2.5,0.2c-0.8,0.1-1.4,0.7-1.4,1.5l0,1.5c-1,0.3-1.9,0.8-2.7,1.4l-1.3-0.8c-0.6-0.4-1.5-0.3-2,0.3
		l-1.6,1.9c-0.5,0.6-0.5,1.5,0.1,2l1.1,1.2c-0.4,0.9-0.7,1.8-0.8,2.7l-1.6,0.3c-0.8,0.2-1.3,0.9-1.2,1.6l0.2,2.5
		c0.1,0.8,0.7,1.4,1.5,1.4l1.7,0.1c0.3,0.8,0.7,1.6,1.2,2.3l-1,1.4c-0.4,0.6-0.3,1.5,0.3,2l1.9,1.6c0.6,0.5,1.5,0.5,2-0.1l1.3-1.2
		c0.8,0.4,1.7,0.7,2.6,0.8l0.3,1.7c0.2,0.8,0.9,1.3,1.6,1.2l2.5-0.2c0.8-0.1,1.4-0.7,1.4-1.5l0.1-1.7c0.9-0.3,1.8-0.8,2.6-1.3
		l1.4,0.9c0.6,0.4,1.5,0.3,2-0.3l1.6-1.9c0.5-0.6,0.5-1.5-0.1-2l-1.1-1.2c0.4-0.9,0.7-1.8,0.9-2.7l1.5-0.3c0.8-0.2,1.3-0.9,1.2-1.6
		l-0.2-2.5c-0.1-0.8-0.7-1.4-1.5-1.4l-1.5,0c-0.3-0.9-0.7-1.7-1.3-2.5l0.8-1.3C278.2,266.7,278.1,265.8,277.5,265.3L277.5,265.3z
		 M268.1,279.8c-2.7,0.2-5.1-1.8-5.3-4.5c-0.2-2.7,1.8-5.1,4.5-5.3c2.7-0.2,5.1,1.8,5.3,4.5C272.8,277.2,270.8,279.6,268.1,279.8
		L268.1,279.8z M268.1,279.8"/>
	<rect id="XMLID_56_" x="219.1" y="231.3" class="st10" width="57" height="56.4"/>
	<path id="XMLID_52_" class="st9" d="M226.1,282.6c-0.8,0.1-1.4,0.7-1.4,1.5l0,1.5c0,0.8,0.6,1.4,1.3,1.5l1.1,0.1
		c0.2,0.7,0.5,1.4,0.8,2l-0.7,0.9c-0.5,0.6-0.5,1.5,0.1,2l1.1,1.1c0.5,0.6,1.4,0.6,2,0.1l0.9-0.7c0.6,0.4,1.3,0.7,2,0.9l0.1,1.2
		c0.1,0.8,0.7,1.4,1.5,1.4l1.5,0c0.8,0,1.4-0.6,1.5-1.3l0.1-1.1c0.8-0.2,1.5-0.5,2.2-0.9l0.9,0.7c0.6,0.5,1.5,0.5,2-0.1l1.1-1.1
		c0.6-0.5,0.6-1.4,0.1-2l-0.7-0.8c0.4-0.7,0.7-1.4,0.9-2.1l1-0.1c0.8-0.1,1.4-0.7,1.4-1.5l0-1.5c0-0.8-0.6-1.4-1.3-1.5l-1-0.1
		c-0.2-0.7-0.5-1.5-0.8-2.1l0.6-0.8c0.5-0.6,0.5-1.5-0.1-2l-1.1-1.1c-0.5-0.6-1.4-0.6-2-0.1l-0.7,0.6c-0.7-0.4-1.4-0.7-2.2-1l-0.1-1
		c-0.1-0.8-0.7-1.4-1.5-1.4l-1.5,0c-0.8,0-1.4,0.6-1.5,1.3l-0.1,1c-0.8,0.2-1.6,0.5-2.3,0.9l-0.8-0.6c-0.6-0.5-1.5-0.5-2,0.1
		l-1.1,1.1c-0.6,0.5-0.6,1.4-0.1,2l0.7,0.8c-0.4,0.7-0.7,1.4-0.9,2.1L226.1,282.6z M236,280.9c2.2,0,4,1.9,4,4.1c0,2.2-1.9,4-4.1,4
		c-2.2,0-4-1.9-4-4.1C232,282.6,233.8,280.9,236,280.9L236,280.9z M236,280.9"/>
	<path id="XMLID_48_" class="st11" d="M248.6,236.3c-0.6-0.6-1.4-0.6-2.1-0.1l-1.6,1.3c-1.1-0.6-2.2-1.1-3.4-1.4l-0.2-2.1
		c-0.1-0.8-0.8-1.4-1.5-1.4h-3.6c-0.8,0-1.4,0.6-1.5,1.4l-0.2,2.1c-1.2,0.3-2.4,0.8-3.4,1.5l-1.7-1.3c-0.6-0.5-1.5-0.4-2.1,0.1
		l-2.6,2.6c-0.6,0.6-0.6,1.4-0.1,2.1l1.4,1.8c-0.6,1-1,2.1-1.3,3.2l-2.2,0.3c-0.8,0.1-1.4,0.8-1.4,1.5v3.6c0,0.8,0.6,1.4,1.4,1.5
		l2.4,0.3c0.3,1,0.7,2,1.2,2.9l-1.5,1.9c-0.5,0.6-0.4,1.5,0.1,2.1l2.6,2.6c0.6,0.6,1.4,0.6,2.1,0.1l1.9-1.5c1,0.6,2,1,3.1,1.3
		l0.3,2.4c0.1,0.8,0.8,1.4,1.5,1.4h3.6c0.8,0,1.4-0.6,1.5-1.4l0.3-2.3c1.1-0.3,2.2-0.7,3.3-1.3l1.8,1.4c0.6,0.5,1.5,0.4,2.1-0.1
		l2.6-2.6c0.6-0.6,0.6-1.4,0.1-2.1l-1.4-1.8c0.6-1,1-2.1,1.4-3.2l2.2-0.3c0.8-0.1,1.4-0.8,1.4-1.5v-3.6c0-0.8-0.6-1.4-1.4-1.5
		l-2.1-0.3c-0.3-1.1-0.7-2.2-1.3-3.2l1.3-1.7c0.5-0.6,0.4-1.5-0.1-2.1L248.6,236.3"/>
	<path id="XMLID_50_" class="st11" d="M277.5,267.3l-1.9-1.6c-0.6-0.5-1.5-0.5-2,0.1l-1.1,1c-0.9-0.4-1.9-0.7-2.8-0.9l-0.3-1.5
		c-0.2-0.8-0.9-1.3-1.6-1.2l-2.5,0.2c-0.8,0.1-1.4,0.7-1.4,1.5l0,1.5c-1,0.3-1.9,0.8-2.7,1.4l-1.3-0.8c-0.6-0.4-1.5-0.3-2,0.3
		l-1.6,1.9c-0.5,0.6-0.5,1.5,0.1,2l1.1,1.2c-0.4,0.9-0.7,1.8-0.8,2.7l-1.6,0.3c-0.8,0.2-1.3,0.9-1.2,1.6l0.2,2.5
		c0.1,0.8,0.7,1.4,1.5,1.4l1.7,0.1c0.3,0.8,0.7,1.6,1.2,2.3l-1,1.4c-0.4,0.6-0.3,1.5,0.3,2l1.9,1.6c0.6,0.5,1.5,0.5,2-0.1l1.3-1.2
		c0.8,0.4,1.7,0.7,2.6,0.8l0.3,1.7c0.2,0.8,0.9,1.3,1.6,1.2l2.5-0.2c0.8-0.1,1.4-0.7,1.4-1.5l0.1-1.7c0.9-0.3,1.8-0.8,2.6-1.3
		l1.4,0.9c0.6,0.4,1.5,0.3,2-0.3l1.6-1.9c0.5-0.6,0.5-1.5-0.1-2l-1.1-1.2c0.4-0.9,0.7-1.8,0.9-2.7l1.5-0.3c0.8-0.2,1.3-0.9,1.2-1.6
		l-0.2-2.5c-0.1-0.8-0.7-1.4-1.5-1.4l-1.5,0c-0.3-0.9-0.7-1.7-1.3-2.5l0.8-1.3C278.2,268.7,278.1,267.8,277.5,267.3L277.5,267.3z
		 M268,281.8"/>
	<rect id="XMLID_42_" x="217.1" y="228.8" class="st10" width="57" height="56.4"/>
	<path id="XMLID_51_" class="st11" d="M228,283.9c-0.8,0.1-1.4,0.7-1.4,1.5l0,1.5c0,0.8,0.6,1.4,1.3,1.5l1.1,0.1
		c0.2,0.7,0.5,1.4,0.8,2l-0.7,0.9c-0.5,0.6-0.5,1.5,0.1,2l1.1,1.1c0.5,0.6,1.4,0.6,2,0.1l0.9-0.7c0.6,0.4,1.3,0.7,2,0.9l0.1,1.2
		c0.1,0.8,0.7,1.4,1.5,1.4l1.5,0c0.8,0,1.4-0.6,1.5-1.3l0.1-1.1c0.8-0.2,1.5-0.5,2.2-0.9l0.9,0.7c0.6,0.5,1.5,0.5,2-0.1l1.1-1.1
		c0.6-0.5,0.6-1.4,0.1-2l-0.7-0.8c0.4-0.7,0.7-1.4,0.9-2.1l1-0.1c0.8-0.1,1.4-0.7,1.4-1.5l0-1.5c0-0.8-0.6-1.4-1.3-1.5l-1-0.1
		c-0.2-0.7-0.5-1.5-0.8-2.1l0.6-0.8c0.5-0.6,0.5-1.5-0.1-2l-1.1-1.1c-0.5-0.6-1.4-0.6-2-0.1l-0.7,0.6c-0.7-0.4-1.4-0.7-2.2-1l-0.1-1
		c-0.1-0.8-0.7-1.4-1.5-1.4l-1.5,0c-0.8,0-1.4,0.6-1.5,1.3l-0.1,1c-0.8,0.2-1.6,0.5-2.3,0.9l-0.8-0.6c-0.6-0.5-1.5-0.5-2,0.1
		l-1.1,1.1c-0.6,0.5-0.6,1.4-0.1,2l0.7,0.8c-0.4,0.7-0.7,1.4-0.9,2.1L228,283.9z M238,282.2"/>
	<path id="XMLID_66_" class="st12" d="M200.5,257.9"/>
	<polyline id="XMLID_65_" class="st12" points="100,210 100,258 132,258 	"/>
	<path id="XMLID_49_" class="st13" d="M405.7,288"/>
	<g id="XMLID_44_">
		<path id="XMLID_72_" class="st14" d="M388.5,283.1l2.8-2.2l5.1,6.3l5.6-6l2.6,2.4l-7,7.5c-0.4,0.4-0.8,0.6-1.4,0.6
			c-0.5,0-1-0.3-1.3-0.7L388.5,283.1z"/>
	</g>
	<g id="XMLID_68_">
		<path id="XMLID_69_" class="st14" d="M198.1,265.8l-2.2-2.8l6.3-5.1l-6-5.6l2.4-2.6l7.5,7c0.4,0.4,0.6,0.8,0.6,1.4
			c0,0.5-0.3,1-0.7,1.3L198.1,265.8z"/>
	</g>
	<line id="XMLID_64_" class="st12" x1="291" y1="258" x2="336" y2="258"/>
	<polyline id="XMLID_47_" class="st15" points="348,258 396,258 396,289 	"/>
	<line id="XMLID_67_" class="st15" x1="144" y1="258" x2="200" y2="258"/>
	<path id="XMLID_76_" class="st0" d="M406.6,329.2h58.3c4.2,0,7.5,2.1,7.5,4.8v124.4c0,2.6-3.4,4.8-7.5,4.8h-58.3"/>
	<path id="XMLID_75_" class="st16" d="M412.6,335.1h58.3c4.2,0,7.5,2.1,7.5,4.8v124.4c0,2.6-3.4,4.8-7.5,4.8h-58.3"/>
	<polygon id="XMLID_74_" class="st5" points="403.1,480.2 304,465.7 304,325.7 403.1,312.5 	"/>
	<path id="XMLID_70_" class="st17" d="M388,322.6l-89.6,10.9V470l89.6,14.4 M356.3,442.3"/>
	<polygon id="XMLID_39_" class="st7" points="452.8,391.8 452.8,415.6 448.5,415.6 448.5,392.9 445.5,392.9 445.5,415.6 
		443.1,415.6 443.1,395.3 440.1,395.3 440.1,415.6 437.9,415.6 437.9,397.6 434.9,397.6 434.9,415.6 430.8,415.6 430.8,391.8 	"/>
	<path id="XMLID_19_" class="st18" d="M405,366.3h51.6c1.4,0,2.5,1.1,2.5,2.5v49.4c0,1.4-1.1,2.5-2.5,2.5H405"/>
	<rect id="XMLID_13_" x="409.1" y="371.3" class="st7" width="13.2" height="4.1"/>
	<rect id="XMLID_16_" x="430.8" y="371.3" class="st7" width="22.1" height="4.1"/>
	<rect id="XMLID_17_" x="430.8" y="378.2" class="st7" width="22.1" height="4.1"/>
	<rect id="XMLID_18_" x="430.8" y="385" class="st7" width="22.1" height="4.1"/>
	<rect id="XMLID_12_" x="409.1" y="378.2" class="st7" width="13.2" height="4.1"/>
	<rect id="XMLID_10_" x="409.1" y="385" class="st7" width="13.2" height="4.1"/>
	<rect id="XMLID_9_" x="409.1" y="391.4" class="st7" width="13.2" height="4.1"/>
	<rect id="XMLID_11_" x="409.1" y="398" class="st7" width="13.2" height="4.1"/>
	<rect id="XMLID_14_" x="409.1" y="404.9" class="st7" width="13.2" height="4.1"/>
	<rect id="XMLID_15_" x="409.1" y="411.5" class="st7" width="13.2" height="4.1"/>
	<g id="XMLID_6_">
		<path id="XMLID_7_" class="st7" d="M328.9,403.8c2.9,0,5.3-1.2,7.2-3.5l3.8,3.9c-3,3.4-6.6,5.1-10.7,5.1c-4.1,0-7.5-1.3-10.2-3.9
			c-2.7-2.6-4-5.9-4-9.9c0-4,1.4-7.3,4.1-9.9c2.7-2.7,6-4,10-4c4.4,0,8.1,1.7,11,5l-3.7,4.2c-1.9-2.3-4.2-3.5-7-3.5
			c-2.2,0-4.2,0.7-5.8,2.2c-1.6,1.5-2.4,3.4-2.4,5.9c0,2.5,0.8,4.5,2.3,6C325,403,326.8,403.8,328.9,403.8z"/>
		<path id="XMLID_4_" class="st7" d="M350.9,387.7c-0.6,0.5-0.9,1.1-0.9,1.9c0,0.8,0.4,1.4,1.1,1.9c0.7,0.5,2.3,1,4.9,1.6
			c2.5,0.6,4.5,1.6,5.9,2.8c1.4,1.3,2.1,3.1,2.1,5.5c0,2.4-0.9,4.3-2.7,5.8c-1.8,1.5-4.2,2.2-7.1,2.2c-4.2,0-8.1-1.6-11.4-4.7
			l3.6-4.4c2.9,2.5,5.6,3.8,8,3.8c1.1,0,2-0.2,2.6-0.7c0.6-0.5,0.9-1.1,0.9-1.9c0-0.8-0.3-1.4-1-1.9c-0.7-0.5-2-1-3.9-1.4
			c-3.1-0.7-5.4-1.7-6.8-2.9c-1.4-1.2-2.2-3-2.2-5.6c0-2.5,0.9-4.5,2.7-5.9c1.8-1.4,4.1-2.1,6.8-2.1c1.8,0,3.6,0.3,5.4,0.9
			c1.8,0.6,3.3,1.5,4.7,2.6l-3,4.4c-2.3-1.8-4.7-2.6-7.2-2.6C352.3,386.9,351.5,387.2,350.9,387.7z"/>
		<path id="XMLID_2_" class="st7" d="M378.8,399.4l6.8-17h6.5l-10.8,26.8h-5.1l-10.8-26.8h6.5L378.8,399.4z"/>
	</g>
</g>
</svg>
