<?xml version="1.0" encoding="utf-8"?>
<!-- Generator: Adobe Illustrator 19.0.0, SVG Export Plug-In . SVG Version: 6.00 Build 0)  -->
<svg version="1.1" id="Layer_1" xmlns="http://www.w3.org/2000/svg" xmlns:xlink="http://www.w3.org/1999/xlink" x="0px" y="0px"
	 viewBox="0 0 500 500" style="enable-background:new 0 0 500 500;" xml:space="preserve">
<style type="text/css">
	.st0{opacity:0.7;fill:#F95632;}
	.st1{opacity:0.7;fill:#63D1DB;}
	.st2{fill:none;stroke:#444444;stroke-width:3;stroke-linecap:round;stroke-miterlimit:10;}
	.st3{opacity:0.9;fill:none;stroke:#444444;stroke-width:3;stroke-linecap:round;stroke-miterlimit:10;}
	.st4{fill:none;stroke:#FFFFFF;stroke-width:3;stroke-miterlimit:10;}
	.st5{fill:none;stroke:#FFFFFF;stroke-width:3;stroke-linecap:round;stroke-miterlimit:10;}
	.st6{opacity:0.87;fill:none;stroke:#FFFFFF;stroke-width:3;stroke-miterlimit:10;}
	.st7{fill:#FFFFFF;}
	.st8{fill:none;stroke:#000000;stroke-width:4;stroke-miterlimit:10;}
	.st9{fill:#BEBEBE;}
	.st10{fill:none;}
	.st11{fill:none;stroke:#313131;stroke-width:2;stroke-miterlimit:10;}
	.st12{fill:none;stroke:#313131;stroke-width:4;stroke-linecap:round;stroke-miterlimit:10;}
	.st13{fill:none;stroke:#313131;stroke-width:4;stroke-miterlimit:10;}
	.st14{fill:#444444;}
	.st15{fill:none;stroke:#444444;stroke-width:4;stroke-linecap:round;stroke-miterlimit:10;}
</style>
<g id="XMLID_39_">
	<path id="XMLID_15_" class="st0" d="M470.7,336.9h-63.4v20.7h21v14h-21v13.8H428v13.9h-20.8v13.8H428v13.9h-20.8v13.8H428v13.9
		h-20.8v20.8h63.4c3.2,0,5.8-2.7,5.8-6V342.9C476.5,339.6,473.9,336.9,470.7,336.9L470.7,336.9z M462.7,454.6H435v-13.9h27.7V454.6z
		 M462.7,426.9H435v-13.9h27.7V426.9z M462.7,399.2H435v-13.9h27.7V399.2z M462.7,371.5H435v-13.8h27.7V371.5z M462.7,371.5"/>
	<path id="XMLID_14_" class="st1" d="M307.9,334.9v125.1l92.8,17.9V317L307.9,334.9z M366.6,428.8l-10.8-20.4
		c-0.4-0.8-0.8-2.1-1.3-4.2h-0.2c-0.2,1-0.7,2.4-1.5,4.4l-10.8,20.2h-16.8l20-31.3l-18.3-31.4h17.2l8.9,18.8
		c0.7,1.5,1.3,3.3,1.9,5.3h0.1c0.4-1.2,1-3.1,2-5.5l10-18.6h15.7L364,397.2l19.3,31.6H366.6z M366.6,428.8"/>
	<path id="XMLID_11_" class="st2" d="M388.8,328.2l-86.3,14.9v120.5l86.3,17.2 M358.5,438"/>
	<polyline id="XMLID_17_" class="st2" points="415.9,381.2 415.9,362.6 415.9,354.1 	"/>
	<polyline id="XMLID_19_" class="st2" points="415.9,419.8 415.9,401.2 415.9,392.7 	"/>
	<line id="XMLID_18_" class="st2" x1="415.9" y1="450.2" x2="415.9" y2="430"/>
	<path id="XMLID_16_" class="st2" d="M415.9,340.2v-5.7c0-2.6,2.2-4.8,4.8-4.8h57c2.6,0,4.8,2.2,4.8,4.8V464c0,2.6-2.2,4.8-4.8,4.8
		h-57c-2.6,0-4.8-2.2-4.8-4.8"/>
	<path id="XMLID_38_" class="st0" d="M125.6,35.9h58.3c4.2,0,7.5,2.1,7.5,4.8v124.4c0,2.6-3.4,4.8-7.5,4.8h-58.3"/>
	<path id="XMLID_37_" class="st3" d="M131.7,41.9H190c4.2,0,7.5,2.1,7.5,4.8V171c0,2.6-3.4,4.8-7.5,4.8h-58.3"/>
	<path id="XMLID_34_" class="st4" d="M161.7,102l-2.9-1.5c0,0-0.2-0.2-0.4-0.4c0.6-0.6,1-1.5,1.1-2.4c0.1-0.1,0.2-0.2,0.3-0.5
		c0,0,0.3-1.2-0.2-1c0.4-1.9,0.1-2.5,0.1-2.5c-0.4-1.2-0.4-1.5-1.7-1.8c-1.3-0.3-2.9,0.2-2.9,0.2c-1.1,0.3-1.5,0.9-1.5,0.9
		c-0.9,1.1-0.5,2.8-0.3,3.2c-0.4-0.1-0.1,1-0.1,1c0.1,0.3,0.2,0.5,0.3,0.5c0.1,0.8,0.6,1.7,1.2,2.4c-0.1,0.1-0.3,0.2-0.4,0.3
		c0,0,0,0.5-1.4,0.9c0,0-2.5,0.8-2.9,1.7c0,0-1.4,3.1-1.1,5.9c0,0,0,0.2,0.5,0.5c0,0,3.2,1.3,7.5,1.2c0,0,4.2-0.2,6.9-1.4
		c0,0,0.4-0.1,0.4-1c0,0-0.1-3.9-1.3-5.6C162.9,102.7,162.5,102.3,161.7,102L161.7,102z M161.7,102"/>
	<line id="XMLID_33_" class="st5" x1="126" y1="94.5" x2="140" y2="94.5"/>
	<line id="XMLID_32_" class="st5" x1="126" y1="104.5" x2="140" y2="104.5"/>
	<line id="XMLID_31_" class="st5" x1="126" y1="114.5" x2="140" y2="114.5"/>
	<path id="XMLID_30_" class="st6" d="M164.7,126.6H107c-2.2,0-4.1-1.8-4.1-4.1V83.3c0-2.2,1.8-4.1,4.1-4.1h57.7
		c2.2,0,4.1,1.8,4.1,4.1v39.3C168.7,124.8,166.9,126.6,164.7,126.6z"/>
	<polygon id="XMLID_29_" class="st1" points="122.1,187 23,172.5 23,32.5 122.1,19.2 	"/>
	<path id="XMLID_26_" class="st2" d="M107.1,29.3L17.5,41.3v136.5l89.6,13 M75.4,149"/>
	<g id="XMLID_1_">
		<path id="XMLID_24_" class="st7" d="M46.7,105l6.9-17.3h6.6l-10.9,27.2h-5.1L33.2,87.7h6.6L46.7,105z"/>
		<path id="XMLID_22_" class="st7" d="M75.9,109.5c3,0,5.4-1.2,7.3-3.5l3.9,4c-3.1,3.5-6.7,5.2-10.9,5.2c-4.2,0-7.6-1.3-10.3-4
			c-2.7-2.6-4.1-6-4.1-10c0-4,1.4-7.4,4.1-10.1c2.8-2.7,6.1-4,10.1-4c4.5,0,8.2,1.7,11.2,5.1l-3.8,4.3c-1.9-2.4-4.3-3.6-7.2-3.6
			c-2.3,0-4.2,0.7-5.9,2.2c-1.6,1.5-2.4,3.5-2.4,6s0.8,4.6,2.3,6.1C71.9,108.7,73.7,109.5,75.9,109.5z"/>
		<path id="XMLID_20_" class="st7" d="M110.6,87.7V93H98v5.9h12v5.3H98v10.7h-6.1V87.7H110.6z"/>
	</g>
	<path id="XMLID_46_" class="st8" d="M230,243.2"/>
	<path id="XMLID_63_" class="st9" d="M242.6,238.7c-0.6-0.6-1.4-0.6-2.1-0.1l-1.6,1.3c-1.1-0.6-2.2-1.1-3.4-1.4l-0.2-2.1
		c-0.1-0.8-0.8-1.4-1.5-1.4h-3.6c-0.8,0-1.4,0.6-1.5,1.4l-0.2,2.1c-1.2,0.3-2.4,0.8-3.4,1.5l-1.7-1.3c-0.6-0.5-1.5-0.4-2.1,0.1
		l-2.6,2.6c-0.6,0.6-0.6,1.4-0.1,2.1l1.4,1.8c-0.6,1-1,2.1-1.3,3.2l-2.2,0.3c-0.8,0.1-1.4,0.8-1.4,1.5v3.6c0,0.8,0.6,1.4,1.4,1.5
		l2.4,0.3c0.3,1,0.7,2,1.2,2.9l-1.5,1.9c-0.5,0.6-0.4,1.5,0.1,2.1l2.6,2.6c0.6,0.6,1.4,0.6,2.1,0.1l1.9-1.5c1,0.6,2,1,3.1,1.3
		l0.3,2.4c0.1,0.8,0.8,1.4,1.5,1.4h3.6c0.8,0,1.4-0.6,1.5-1.4l0.3-2.3c1.1-0.3,2.2-0.7,3.3-1.3l1.8,1.4c0.6,0.5,1.5,0.4,2.1-0.1
		l2.6-2.6c0.6-0.6,0.6-1.4,0.1-2.1l-1.4-1.8c0.6-1,1-2.1,1.4-3.2l2.2-0.3c0.8-0.1,1.4-0.8,1.4-1.5V250c0-0.8-0.6-1.4-1.4-1.5
		l-2.1-0.3c-0.3-1.1-0.7-2.2-1.3-3.2l1.3-1.7c0.5-0.6,0.4-1.5-0.1-2.1L242.6,238.7"/>
	<path id="XMLID_62_" class="st7" d="M233.9,245.8c3.3,0,6,2.7,6,6c0,3.3-2.7,6-6,6c-3.3,0-6-2.7-6-6
		C227.8,248.5,230.5,245.8,233.9,245.8L233.9,245.8z"/>
	<path id="XMLID_61_" class="st8" d="M232,245.8"/>
	<path id="XMLID_57_" class="st9" d="M273.5,269l-1.9-1.6c-0.6-0.5-1.5-0.5-2,0.1l-1.1,1c-0.9-0.4-1.9-0.7-2.8-0.9l-0.3-1.5
		c-0.2-0.8-0.9-1.3-1.6-1.2l-2.5,0.2c-0.8,0.1-1.4,0.7-1.4,1.5l0,1.5c-1,0.3-1.9,0.8-2.7,1.4l-1.3-0.8c-0.6-0.4-1.5-0.3-2,0.3
		l-1.6,1.9c-0.5,0.6-0.5,1.5,0.1,2l1.1,1.2c-0.4,0.9-0.7,1.8-0.8,2.7l-1.6,0.3c-0.8,0.2-1.3,0.9-1.2,1.6l0.2,2.5
		c0.1,0.8,0.7,1.4,1.5,1.4l1.7,0.1c0.3,0.8,0.7,1.6,1.2,2.3l-1,1.4c-0.4,0.6-0.3,1.5,0.3,2l1.9,1.6c0.6,0.5,1.5,0.5,2-0.1l1.3-1.2
		c0.8,0.4,1.7,0.7,2.6,0.8l0.3,1.7c0.2,0.8,0.9,1.3,1.6,1.2l2.5-0.2c0.8-0.1,1.4-0.7,1.4-1.5l0.1-1.7c0.9-0.3,1.8-0.8,2.6-1.3
		l1.4,0.9c0.6,0.4,1.5,0.3,2-0.3l1.6-1.9c0.5-0.6,0.5-1.5-0.1-2l-1.1-1.2c0.4-0.9,0.7-1.8,0.9-2.7l1.5-0.3c0.8-0.2,1.3-0.9,1.2-1.6
		l-0.2-2.5c-0.1-0.8-0.7-1.4-1.5-1.4l-1.5,0c-0.3-0.9-0.7-1.7-1.3-2.5l0.8-1.3C274.2,270.4,274.1,269.5,273.5,269L273.5,269z
		 M264,283.5c-2.7,0.2-5.1-1.8-5.3-4.5c-0.2-2.7,1.8-5.1,4.5-5.3c2.7-0.2,5.1,1.8,5.3,4.5C268.8,280.9,266.7,283.3,264,283.5
		L264,283.5z M264,283.5"/>
	<rect id="XMLID_56_" x="215" y="235" class="st10" width="57" height="56.4"/>
	<path id="XMLID_52_" class="st9" d="M222,286.3c-0.8,0.1-1.4,0.7-1.4,1.5l0,1.5c0,0.8,0.6,1.4,1.3,1.5l1.1,0.1
		c0.2,0.7,0.5,1.4,0.8,2l-0.7,0.9c-0.5,0.6-0.5,1.5,0.1,2l1.1,1.1c0.5,0.6,1.4,0.6,2,0.1l0.9-0.7c0.6,0.4,1.3,0.7,2,0.9l0.1,1.2
		c0.1,0.8,0.7,1.4,1.5,1.4l1.5,0c0.8,0,1.4-0.6,1.5-1.3l0.1-1.1c0.8-0.2,1.5-0.5,2.2-0.9l0.9,0.7c0.6,0.5,1.5,0.5,2-0.1l1.1-1.1
		c0.6-0.5,0.6-1.4,0.1-2l-0.7-0.8c0.4-0.7,0.7-1.4,0.9-2.1l1-0.1c0.8-0.1,1.4-0.7,1.4-1.5l0-1.5c0-0.8-0.6-1.4-1.3-1.5l-1-0.1
		c-0.2-0.7-0.5-1.5-0.8-2.1l0.6-0.8c0.5-0.6,0.5-1.5-0.1-2l-1.1-1.1c-0.5-0.6-1.4-0.6-2-0.1l-0.7,0.6c-0.7-0.4-1.4-0.7-2.2-1l-0.1-1
		c-0.1-0.8-0.7-1.4-1.5-1.4l-1.5,0c-0.8,0-1.4,0.6-1.5,1.3l-0.1,1c-0.8,0.2-1.6,0.5-2.3,0.9l-0.8-0.6c-0.6-0.5-1.5-0.5-2,0.1
		l-1.1,1.1c-0.6,0.5-0.6,1.4-0.1,2l0.7,0.8c-0.4,0.7-0.7,1.4-0.9,2.1L222,286.3z M232,284.6c2.2,0,4,1.9,4,4.1c0,2.2-1.9,4-4.1,4
		c-2.2,0-4-1.9-4-4.1C228,286.3,229.8,284.6,232,284.6L232,284.6z M232,284.6"/>
	<path id="XMLID_48_" class="st11" d="M244.6,240c-0.6-0.6-1.4-0.6-2.1-0.1l-1.6,1.3c-1.1-0.6-2.2-1.1-3.4-1.4l-0.2-2.1
		c-0.1-0.8-0.8-1.4-1.5-1.4h-3.6c-0.8,0-1.4,0.6-1.5,1.4l-0.2,2.1c-1.2,0.3-2.4,0.8-3.4,1.5l-1.7-1.3c-0.6-0.5-1.5-0.4-2.1,0.1
		l-2.6,2.6c-0.6,0.6-0.6,1.4-0.1,2.1l1.4,1.8c-0.6,1-1,2.1-1.3,3.2l-2.2,0.3c-0.8,0.1-1.4,0.8-1.4,1.5v3.6c0,0.8,0.6,1.4,1.4,1.5
		l2.4,0.3c0.3,1,0.7,2,1.2,2.9l-1.5,1.9c-0.5,0.6-0.4,1.5,0.1,2.1l2.6,2.6c0.6,0.6,1.4,0.6,2.1,0.1l1.9-1.5c1,0.6,2,1,3.1,1.3
		l0.3,2.4c0.1,0.8,0.8,1.4,1.5,1.4h3.6c0.8,0,1.4-0.6,1.5-1.4l0.3-2.3c1.1-0.3,2.2-0.7,3.3-1.3l1.8,1.4c0.6,0.5,1.5,0.4,2.1-0.1
		l2.6-2.6c0.6-0.6,0.6-1.4,0.1-2.1l-1.4-1.8c0.6-1,1-2.1,1.4-3.2l2.2-0.3c0.8-0.1,1.4-0.8,1.4-1.5v-3.6c0-0.8-0.6-1.4-1.4-1.5
		l-2.1-0.3c-0.3-1.1-0.7-2.2-1.3-3.2l1.3-1.7c0.5-0.6,0.4-1.5-0.1-2.1L244.6,240"/>
	<path id="XMLID_50_" class="st11" d="M273.5,271l-1.9-1.6c-0.6-0.5-1.5-0.5-2,0.1l-1.1,1c-0.9-0.4-1.9-0.7-2.8-0.9l-0.3-1.5
		c-0.2-0.8-0.9-1.3-1.6-1.2l-2.5,0.2c-0.8,0.1-1.4,0.7-1.4,1.5l0,1.5c-1,0.3-1.9,0.8-2.7,1.4l-1.3-0.8c-0.6-0.4-1.5-0.3-2,0.3
		l-1.6,1.9c-0.5,0.6-0.5,1.5,0.1,2l1.1,1.2c-0.4,0.9-0.7,1.8-0.8,2.7l-1.6,0.3c-0.8,0.2-1.3,0.9-1.2,1.6l0.2,2.5
		c0.1,0.8,0.7,1.4,1.5,1.4l1.7,0.1c0.3,0.8,0.7,1.6,1.2,2.3l-1,1.4c-0.4,0.6-0.3,1.5,0.3,2l1.9,1.6c0.6,0.5,1.5,0.5,2-0.1l1.3-1.2
		c0.8,0.4,1.7,0.7,2.6,0.8l0.3,1.7c0.2,0.8,0.9,1.3,1.6,1.2l2.5-0.2c0.8-0.1,1.4-0.7,1.4-1.5l0.1-1.7c0.9-0.3,1.8-0.8,2.6-1.3
		l1.4,0.9c0.6,0.4,1.5,0.3,2-0.3l1.6-1.9c0.5-0.6,0.5-1.5-0.1-2l-1.1-1.2c0.4-0.9,0.7-1.8,0.9-2.7l1.5-0.3c0.8-0.2,1.3-0.9,1.2-1.6
		l-0.2-2.5c-0.1-0.8-0.7-1.4-1.5-1.4l-1.5,0c-0.3-0.9-0.7-1.7-1.3-2.5l0.8-1.3C274.2,272.4,274,271.5,273.5,271L273.5,271z
		 M264,285.5"/>
	<rect id="XMLID_42_" x="213.1" y="232.5" class="st10" width="57" height="56.4"/>
	<path id="XMLID_51_" class="st11" d="M224,287.6c-0.8,0.1-1.4,0.7-1.4,1.5l0,1.5c0,0.8,0.6,1.4,1.3,1.5l1.1,0.1
		c0.2,0.7,0.5,1.4,0.8,2l-0.7,0.9c-0.5,0.6-0.5,1.5,0.1,2l1.1,1.1c0.5,0.6,1.4,0.6,2,0.1l0.9-0.7c0.6,0.4,1.3,0.7,2,0.9l0.1,1.2
		c0.1,0.8,0.7,1.4,1.5,1.4l1.5,0c0.8,0,1.4-0.6,1.5-1.3l0.1-1.1c0.8-0.2,1.5-0.5,2.2-0.9l0.9,0.7c0.6,0.5,1.5,0.5,2-0.1l1.1-1.1
		c0.6-0.5,0.6-1.4,0.1-2l-0.7-0.8c0.4-0.7,0.7-1.4,0.9-2.1l1-0.1c0.8-0.1,1.4-0.7,1.4-1.5l0-1.5c0-0.8-0.6-1.4-1.3-1.5l-1-0.1
		c-0.2-0.7-0.5-1.5-0.8-2.1l0.6-0.8c0.5-0.6,0.5-1.5-0.1-2l-1.1-1.1c-0.5-0.6-1.4-0.6-2-0.1l-0.7,0.6c-0.7-0.4-1.4-0.7-2.2-1l-0.1-1
		c-0.1-0.8-0.7-1.4-1.5-1.4l-1.5,0c-0.8,0-1.4,0.6-1.5,1.3l-0.1,1c-0.8,0.2-1.6,0.5-2.3,0.9l-0.8-0.6c-0.6-0.5-1.5-0.5-2,0.1
		l-1.1,1.1c-0.6,0.5-0.6,1.4-0.1,2l0.7,0.8c-0.4,0.7-0.7,1.4-0.9,2.1L224,287.6z M234,285.9"/>
	<path id="XMLID_66_" class="st12" d="M196.5,261.6"/>
	<polyline id="XMLID_65_" class="st12" points="96,214 96,262 128,262 	"/>
	<path id="XMLID_49_" class="st13" d="M401.7,291.7"/>
	<g id="XMLID_44_">
		<path id="XMLID_72_" class="st14" d="M384.4,286.8l2.8-2.2l5.1,6.3l5.6-6l2.6,2.4l-7,7.5c-0.4,0.4-0.8,0.6-1.4,0.6
			c-0.5,0-1-0.3-1.3-0.7L384.4,286.8z"/>
	</g>
	<g id="XMLID_68_">
		<path id="XMLID_69_" class="st14" d="M194.1,269.5l-2.2-2.8l6.3-5.1l-6-5.6l2.4-2.6l7.5,7c0.4,0.4,0.6,0.8,0.6,1.4
			c0,0.5-0.3,1-0.7,1.3L194.1,269.5z"/>
	</g>
	<line id="XMLID_64_" class="st12" x1="287" y1="262" x2="332" y2="262"/>
	<polyline id="XMLID_47_" class="st15" points="344,262 392,262 392,293 	"/>
	<line id="XMLID_67_" class="st15" x1="140" y1="262" x2="196" y2="262"/>
</g>
</svg>
